<svg xmlns="http://www.w3.org/2000/svg" width="24" height="24" fill="none"><g fill="#33836E" fill-rule="evenodd" clip-rule="evenodd"><path d="M7.25 10A.75.75 0 0 1 8 9.25h8a.75.75 0 0 1 0 1.5H8a.75.75 0 0 1-.75-.75ZM7.25 14a.75.75 0 0 1 .75-.75h4a.75.75 0 0 1 0 1.5H8a.75.75 0 0 1-.75-.75Z"/><path d="M12 2.75A9.25 9.25 0 0 0 2.75 12c0 1.686.45 3.265 1.237 4.625a.75.75 0 0 1 .088.512l-.638 3.426 3.426-.638a.75.75 0 0 1 .513.088A9.204 9.204 0 0 0 12 21.25a9.25 9.25 0 0 0 0-18.5ZM1.25 12C1.25 6.063 6.063 1.25 12 1.25S22.75 6.063 22.75 12 17.937 22.75 12 22.75c-1.856 0-3.605-.471-5.13-1.3l-4.233.787a.75.75 0 0 1-.874-.874l.788-4.233A10.705 10.705 0 0 1 1.25 12Z"/></g></svg>