<svg xmlns="http://www.w3.org/2000/svg" width="179" height="32" fill="none"><g clip-path="url(#a)"><path fill="#140A32" d="M66.426 9.137h-4.498V1.001c.005-.202-.03-.348-.099-.43-.073-.083-.202-.125-.392-.12h-.853c-.19-.005-.327.037-.405.12-.078.082-.116.228-.112.43v18.416c-.004.202.035.349.112.431.078.082.215.124.405.12h.853c.19.004.319-.038.392-.12.07-.082.103-.229.1-.43v-8.412h4.497v2.474c.004 1.443.272 2.676.81 3.702a5.449 5.449 0 0 0 2.37 2.345c1.038.546 2.313.82 3.825.825 1.495-.005 2.758-.28 3.792-.825a5.434 5.434 0 0 0 2.352-2.345c.538-1.026.805-2.259.81-3.702V6.938c-.005-1.443-.272-2.675-.81-3.702a5.469 5.469 0 0 0-2.352-2.35c-1.034-.54-2.297-.815-3.792-.82-1.512.005-2.787.28-3.825.82a5.483 5.483 0 0 0-2.37 2.35c-.538 1.027-.806 2.259-.81 3.702v2.2Zm12.098 4.343c0 1.077-.199 1.984-.59 2.735a3.924 3.924 0 0 1-1.724 1.704c-.754.394-1.68.587-2.779.591-1.102-.004-2.038-.197-2.796-.59a3.923 3.923 0 0 1-1.732-1.705c-.392-.751-.59-1.658-.59-2.735V6.938c0-1.077.198-1.988.59-2.735a3.956 3.956 0 0 1 1.732-1.709c.758-.39 1.694-.586 2.796-.586 1.099 0 2.025.197 2.779.586a3.958 3.958 0 0 1 1.723 1.709c.392.747.59 1.658.59 2.735v6.542ZM84.392.451c-.19-.005-.328.037-.406.12-.077.082-.116.228-.112.43v18.416c-.004.202.035.349.112.431.078.082.216.124.406.12h.852c.19.004.32-.038.392-.12.07-.082.104-.229.1-.43v-6.79h5.557c1.211-.005 2.253-.247 3.124-.728a4.84 4.84 0 0 0 2.007-2.076c.47-.902.707-1.993.711-3.27-.004-1.279-.241-2.374-.71-3.281a4.924 4.924 0 0 0-2.008-2.089c-.87-.486-1.913-.728-3.124-.733h-6.901Zm1.344 10.335V2.32h5.402c.84.005 1.564.174 2.167.509a3.44 3.44 0 0 1 1.396 1.452c.328.632.491 1.388.495 2.272-.004.884-.167 1.64-.495 2.273a3.404 3.404 0 0 1-1.396 1.447c-.603.34-1.327.509-2.167.513h-5.402ZM112.49.451a.74.74 0 0 0-.31.064.61.61 0 0 0-.233.21l-7.445 11.518a57.938 57.938 0 0 0-1.637 2.717 50.886 50.886 0 0 0-1.284 2.45h-.077a52.28 52.28 0 0 0 .233-2.904c.051-.985.077-1.988.077-3.005v-10.5c.004-.202-.03-.348-.099-.43-.073-.083-.203-.125-.392-.12h-.853c-.19-.005-.328.037-.405.12-.078.082-.117.228-.112.43v18.416c-.005.202.034.349.112.431.077.082.215.124.405.12h.853c.116 0 .22-.028.31-.079a.74.74 0 0 0 .233-.224l7.625-11.792c.608-.99 1.142-1.892 1.607-2.703.461-.811.849-1.53 1.159-2.163h.052a48.224 48.224 0 0 0-.336 5.608v10.802c0 .202.034.349.112.431.082.082.215.124.405.12h.853c.189.004.327-.038.405-.12.077-.082.116-.229.112-.43V1c.004-.202-.035-.348-.112-.43-.078-.083-.216-.125-.405-.12h-.853Zm4.86 13.002c.004 1.443.279 2.68.831 3.706a5.625 5.625 0 0 0 2.404 2.364c1.051.545 2.335.824 3.847.829 1.297 0 2.404-.179 3.326-.54.918-.358 1.672-.894 2.258-1.604.59-.715 1.038-1.603 1.344-2.666.052-.165.052-.303 0-.417-.052-.11-.155-.202-.31-.27l-.802-.33a.576.576 0 0 0-.405.022c-.112.06-.202.17-.267.335-.237.834-.568 1.516-.995 2.052a3.783 3.783 0 0 1-1.654 1.191c-.677.257-1.508.385-2.495.385-1.116-.004-2.055-.206-2.83-.6a4.048 4.048 0 0 1-1.758-1.722c-.405-.747-.603-1.65-.607-2.708V6.938c0-1.067.198-1.974.594-2.721a3.986 3.986 0 0 1 1.749-1.714c.771-.394 1.723-.595 2.852-.595.97-.005 1.788.124 2.456.375a3.807 3.807 0 0 1 1.646 1.164c.422.522.754 1.191.991 2.007.064.15.15.252.258.307.108.055.246.064.414.023l.801-.303c.19-.064.306-.151.349-.256.043-.106.03-.257-.039-.458-.306-1.054-.754-1.93-1.34-2.626-.586-.696-1.335-1.214-2.249-1.557-.913-.348-2.007-.518-3.287-.518-1.529.005-2.817.28-3.868.83-1.052.55-1.853 1.337-2.396 2.363-.543 1.026-.814 2.263-.818 3.707v6.487ZM133.17.45c-.19-.005-.328.037-.406.12-.077.082-.116.228-.112.43v.77c-.004.201.035.343.112.43.078.082.216.12.406.12h5.221v17.096c-.004.202.034.349.112.431.077.082.216.124.405.12h.853c.19.004.327-.038.405-.12.078-.082.116-.229.112-.43V2.32h5.222c.189 0 .327-.037.405-.119.077-.087.116-.229.112-.43V1c.004-.202-.035-.348-.112-.43-.078-.083-.216-.125-.405-.12h-12.33Zm14.656 13.002c.004 1.443.28 2.68.827 3.706a5.576 5.576 0 0 0 2.404 2.364c1.056.545 2.348.824 3.878.829 1.52-.005 2.804-.284 3.86-.83a5.594 5.594 0 0 0 2.4-2.363c.542-1.026.818-2.263.822-3.706V6.966c-.004-1.444-.28-2.68-.822-3.707a5.593 5.593 0 0 0-2.4-2.364c-1.056-.55-2.34-.824-3.86-.829-1.53.005-2.822.28-3.878.83a5.575 5.575 0 0 0-2.404 2.363c-.547 1.026-.823 2.263-.827 3.707v6.487Zm12.33 0c0 1.076-.202 1.988-.599 2.74a4.005 4.005 0 0 1-1.761 1.722c-.776.394-1.732.59-2.861.595-1.129-.004-2.085-.201-2.865-.595a4.037 4.037 0 0 1-1.775-1.723c-.405-.751-.608-1.663-.608-2.74V6.967c0-1.077.203-1.989.608-2.74a4.012 4.012 0 0 1 1.775-1.723c.78-.394 1.736-.595 2.865-.595 1.129 0 2.085.201 2.861.595a3.98 3.98 0 0 1 1.761 1.723c.397.751.599 1.663.599 2.74v6.487ZM166.024.45c-.19-.005-.327.037-.405.12-.077.082-.116.228-.112.43v18.416c-.004.202.035.349.112.431.078.082.215.124.405.12h7.574c1.099-.005 2.051-.212 2.848-.624a4.34 4.34 0 0 0 1.844-1.787c.435-.783.655-1.727.659-2.84 0-1.32-.259-2.378-.771-3.18-.517-.796-1.284-1.342-2.305-1.63v-.055c.814-.371 1.421-.926 1.827-1.663.4-.738.603-1.65.603-2.735-.005-1.077-.199-1.984-.586-2.726a3.888 3.888 0 0 0-1.698-1.695c-.741-.385-1.641-.582-2.705-.582h-7.29Zm10.366 5.25c-.005 1.14-.285 1.998-.849 2.575-.564.572-1.383.861-2.46.861h-5.713V2.32h5.713c1.099 0 1.926.28 2.477.843.556.564.832 1.411.832 2.538Zm-.285 11.49a2.805 2.805 0 0 1-1.098.683c-.435.15-.931.224-1.486.224h-6.153v-7.174h6.153c.555 0 1.051.073 1.486.224.435.151.801.38 1.098.683.298.316.517.696.664 1.14.146.445.215.963.215 1.554 0 .59-.069 1.108-.215 1.548a2.821 2.821 0 0 1-.664 1.118Z"/><path fill="#140A32" d="M66.426 9.137h-4.498V1.001c.005-.202-.03-.348-.099-.43-.073-.083-.202-.125-.392-.12h-.853c-.19-.005-.327.037-.405.12-.078.082-.116.228-.112.43v18.416c-.004.202.035.349.112.431.078.082.215.124.405.12h.853c.19.004.319-.038.392-.12.07-.082.103-.229.1-.43v-8.412h4.497v2.474c.004 1.443.272 2.676.81 3.702a5.449 5.449 0 0 0 2.37 2.345c1.038.546 2.313.82 3.825.825 1.495-.005 2.758-.28 3.792-.825a5.434 5.434 0 0 0 2.352-2.345c.538-1.026.805-2.259.81-3.702V6.938c-.005-1.443-.272-2.675-.81-3.702a5.469 5.469 0 0 0-2.352-2.35c-1.034-.54-2.297-.815-3.792-.82-1.512.005-2.787.28-3.825.82a5.483 5.483 0 0 0-2.37 2.35c-.538 1.027-.806 2.259-.81 3.702v2.2Zm12.098 4.343c0 1.077-.199 1.984-.59 2.735a3.924 3.924 0 0 1-1.724 1.704c-.754.394-1.68.587-2.779.591-1.102-.004-2.038-.197-2.796-.59a3.923 3.923 0 0 1-1.732-1.705c-.392-.751-.59-1.658-.59-2.735V6.938c0-1.077.198-1.988.59-2.735a3.956 3.956 0 0 1 1.732-1.709c.758-.39 1.694-.586 2.796-.586 1.099 0 2.025.197 2.779.586a3.958 3.958 0 0 1 1.723 1.709c.392.747.59 1.658.59 2.735v6.542ZM84.392.451c-.19-.005-.328.037-.406.12-.077.082-.116.228-.112.43v18.416c-.004.202.035.349.112.431.078.082.216.124.406.12h.852c.19.004.32-.038.392-.12.07-.082.104-.229.1-.43v-6.79h5.557c1.211-.005 2.253-.247 3.124-.728a4.84 4.84 0 0 0 2.007-2.076c.47-.902.707-1.993.711-3.27-.004-1.279-.241-2.374-.71-3.281a4.924 4.924 0 0 0-2.008-2.089c-.87-.486-1.913-.728-3.124-.733h-6.901Zm1.344 10.335V2.32h5.402c.84.005 1.564.174 2.167.509a3.44 3.44 0 0 1 1.396 1.452c.328.632.491 1.388.495 2.272-.004.884-.167 1.64-.495 2.273a3.404 3.404 0 0 1-1.396 1.447c-.603.34-1.327.509-2.167.513h-5.403ZM112.49.451a.74.74 0 0 0-.31.064.61.61 0 0 0-.233.21l-7.445 11.518a57.938 57.938 0 0 0-1.637 2.717 50.886 50.886 0 0 0-1.284 2.45h-.077a52.28 52.28 0 0 0 .233-2.904c.051-.985.077-1.988.077-3.005v-10.5c.004-.202-.03-.348-.099-.43-.073-.083-.203-.125-.392-.12h-.853c-.19-.005-.328.037-.405.12-.078.082-.117.228-.112.43v18.416c-.005.202.034.349.112.431.077.082.215.124.405.12h.853c.116 0 .22-.028.31-.079a.74.74 0 0 0 .233-.224l7.625-11.792c.608-.99 1.142-1.892 1.607-2.703.461-.811.849-1.53 1.159-2.163h.052a48.224 48.224 0 0 0-.336 5.608v10.802c0 .202.034.349.112.431.082.082.215.124.405.12h.853c.189.004.327-.038.405-.12.077-.082.116-.229.112-.43V1c.004-.202-.035-.348-.112-.43-.078-.083-.216-.125-.405-.12h-.853Zm4.86 13.002c.004 1.443.279 2.68.831 3.706a5.625 5.625 0 0 0 2.404 2.364c1.051.545 2.335.824 3.847.829 1.297 0 2.404-.179 3.326-.54.918-.358 1.672-.894 2.258-1.604.59-.715 1.038-1.603 1.344-2.666.052-.165.052-.303 0-.417-.052-.11-.155-.202-.31-.27l-.802-.33a.576.576 0 0 0-.405.022c-.112.06-.202.17-.267.335-.237.834-.568 1.516-.995 2.052a3.783 3.783 0 0 1-1.654 1.191c-.677.257-1.508.385-2.495.385-1.116-.004-2.055-.206-2.83-.6a4.048 4.048 0 0 1-1.758-1.722c-.405-.747-.603-1.65-.607-2.708V6.938c0-1.067.198-1.974.594-2.721a3.986 3.986 0 0 1 1.749-1.714c.771-.394 1.723-.595 2.852-.595.97-.005 1.788.124 2.456.375a3.807 3.807 0 0 1 1.646 1.164c.422.522.754 1.191.991 2.007.064.15.15.252.258.307.108.055.246.064.414.023l.801-.303c.19-.064.306-.151.349-.256.043-.106.03-.257-.039-.458-.306-1.054-.754-1.93-1.34-2.626-.586-.696-1.335-1.214-2.249-1.557-.913-.348-2.007-.518-3.287-.518-1.529.005-2.817.28-3.868.83-1.052.55-1.853 1.337-2.396 2.363-.543 1.026-.814 2.263-.818 3.707v6.487ZM133.17.45c-.19-.005-.328.037-.406.12-.077.082-.116.228-.112.43v.77c-.004.201.035.343.112.43.078.082.216.12.406.12h5.221v17.096c-.004.202.034.349.112.431.077.082.216.124.405.12h.853c.19.004.327-.038.405-.12.078-.082.116-.229.112-.43V2.32h5.222c.189 0 .327-.037.405-.119.077-.087.116-.229.112-.43V1c.004-.202-.035-.348-.112-.43-.078-.083-.216-.125-.405-.12h-12.33Zm14.656 13.002c.004 1.443.28 2.68.827 3.706a5.576 5.576 0 0 0 2.404 2.364c1.056.545 2.348.824 3.878.829 1.52-.005 2.804-.284 3.86-.83a5.594 5.594 0 0 0 2.4-2.363c.542-1.026.818-2.263.822-3.706V6.966c-.004-1.444-.28-2.68-.822-3.707a5.593 5.593 0 0 0-2.4-2.364c-1.056-.55-2.34-.824-3.86-.829-1.53.005-2.822.28-3.878.83a5.575 5.575 0 0 0-2.404 2.363c-.547 1.026-.823 2.263-.827 3.707v6.487Zm12.33 0c0 1.076-.202 1.988-.599 2.74a4.005 4.005 0 0 1-1.761 1.722c-.776.394-1.732.59-2.861.595-1.129-.004-2.085-.201-2.865-.595a4.037 4.037 0 0 1-1.775-1.723c-.405-.751-.608-1.663-.608-2.74V6.967c0-1.077.203-1.989.608-2.74a4.012 4.012 0 0 1 1.775-1.723c.78-.394 1.736-.595 2.865-.595 1.129 0 2.085.201 2.861.595a3.98 3.98 0 0 1 1.761 1.723c.397.751.599 1.663.599 2.74v6.487ZM166.024.45c-.19-.005-.327.037-.405.12-.077.082-.116.228-.112.43v18.416c-.004.202.035.349.112.431.078.082.215.124.405.12h7.574c1.099-.005 2.051-.212 2.848-.624a4.34 4.34 0 0 0 1.844-1.787c.435-.783.655-1.727.659-2.84 0-1.32-.259-2.378-.771-3.18-.517-.796-1.284-1.342-2.305-1.63v-.055c.814-.371 1.421-.926 1.827-1.663.4-.738.603-1.65.603-2.735-.005-1.077-.199-1.984-.586-2.726a3.888 3.888 0 0 0-1.698-1.695c-.741-.385-1.641-.582-2.705-.582h-7.29Zm10.366 5.25c-.005 1.14-.285 1.998-.849 2.575-.564.572-1.383.861-2.46.861h-5.713V2.32h5.713c1.099 0 1.926.28 2.477.843.556.564.832 1.411.832 2.538Zm-.285 11.49a2.805 2.805 0 0 1-1.098.683c-.435.15-.931.224-1.486.224h-6.153v-7.174h6.153c.555 0 1.051.073 1.486.224.435.151.801.38 1.098.683.298.316.517.696.664 1.14.146.445.215.963.215 1.554 0 .59-.069 1.108-.215 1.548a2.821 2.821 0 0 1-.664 1.118ZM5.419 26.15h-1.21v-2.006c.002-.1-.016-.166-.052-.203-.037-.036-.105-.054-.205-.052h-.45c-.1-.002-.167.016-.205.052-.035.037-.053.104-.051.203v4.969c0 .17.085.255.257.255h.45c.1.001.167-.016.204-.052.036-.037.054-.104.052-.203v-2.081h1.21v.477c.001.423.094.784.276 1.085.184.301.45.531.8.69.347.16.77.241 1.268.243.501-.002.926-.083 1.277-.243.35-.159.618-.389.801-.69.182-.3.275-.662.277-1.085v-1.762c-.002-.423-.095-.784-.277-1.085-.183-.3-.451-.53-.8-.69-.352-.16-.777-.24-1.278-.242-.498.002-.92.081-1.268.242-.35.16-.616.39-.8.69-.182.301-.275.662-.276 1.085v.404Zm3.735 1.36c0 .24-.057.447-.167.62a1.06 1.06 0 0 1-.478.397c-.207.092-.455.14-.746.14-.29 0-.537-.048-.744-.14a1.049 1.049 0 0 1-.471-.396 1.146 1.146 0 0 1-.166-.622v-1.762c.002-.244.055-.453.166-.626.109-.172.266-.303.471-.395.207-.09.455-.136.744-.136.446.002.79.102 1.03.304.238.2.36.485.361.853v1.762Zm2.527-3.472a.997.997 0 0 0-.26.14.375.375 0 0 0-.126.184.9.9 0 0 0-.032.281v6.805c-.002.09.018.154.056.195.037.04.101.06.19.06h.45c.1.002.168-.016.205-.051.036-.037.054-.105.052-.204V29.24c.278.096.533.166.764.214.231.048.44.073.627.073 1.52 0 2.28-.722 2.28-2.166v-1.497c0-.711-.187-1.246-.56-1.602-.374-.355-.933-.532-1.677-.532-.39 0-.749.026-1.077.078-.327.053-.625.129-.892.23Zm3.243 3.291c0 .44-.114.772-.346.994-.232.222-.58.333-1.045.333a2.78 2.78 0 0 1-.586-.07 6.39 6.39 0 0 1-.731-.206v-3.397c-.002-.062.007-.108.029-.14.02-.032.064-.058.132-.083a3.978 3.978 0 0 1 1.134-.16c.471 0 .824.108 1.06.326.235.216.353.54.353.97v1.433Zm2.376-3.44c-.1-.002-.167.016-.205.052-.035.037-.053.104-.051.203v4.969c0 .17.085.255.256.255h.45a.306.306 0 0 0 .257-.128l2.301-3.11c.123-.176.236-.344.336-.505.101-.161.189-.319.264-.472h.032c-.059.276-.102.53-.13.766a5.72 5.72 0 0 0-.041.646v2.548c-.002.099.016.166.051.203.038.036.106.053.206.052h.45c.099.001.167-.016.204-.052.036-.037.054-.104.052-.203v-4.969c.002-.1-.016-.166-.052-.203-.037-.036-.105-.054-.205-.052h-.45a.308.308 0 0 0-.142.032.267.267 0 0 0-.104.096l-2.333 3.142a4.942 4.942 0 0 0-.578.956h-.032a5.433 5.433 0 0 0 .17-1.38v-2.591c.003-.1-.015-.166-.05-.203-.038-.036-.106-.054-.206-.052h-.45Zm10.587 4.597v-4.342c0-.1-.02-.166-.06-.203-.042-.036-.106-.054-.197-.052h-3.532c-.091-.002-.156.016-.197.052-.04.037-.06.104-.06.203v1.603c0 .44-.016.818-.047 1.133a4.069 4.069 0 0 1-.135.757c-.064.196-.14.364-.227.504-.085.14-.185.255-.298.345h-.289c-.089-.002-.153.018-.19.057-.038.04-.058.11-.056.209v1.836c-.002.09.018.154.055.195.038.04.102.06.191.06h.418c.09 0 .159-.021.201-.064.045-.042.066-.106.066-.19v-1.221h4.229v1.22c0 .09.02.154.06.195.041.04.107.06.196.06h.418c.1 0 .168-.02.205-.06.036-.04.054-.104.052-.195v-1.836c.002-.1-.016-.168-.052-.21-.037-.038-.105-.058-.205-.056h-.546Zm-3.115-3.716h2.152v3.716h-2.687c.177-.255.31-.605.4-1.053.09-.445.135-.99.135-1.633v-1.03Zm5.02-.88c-.1-.003-.167.015-.205.05-.035.038-.053.105-.052.204v4.969c0 .17.086.255.257.255h.45a.306.306 0 0 0 .257-.128l2.301-3.11c.123-.176.236-.344.336-.505.101-.161.189-.319.264-.472h.032c-.06.276-.102.53-.13.766-.027.233-.041.45-.041.646v2.548c-.002.099.016.166.051.203.038.036.105.053.205.052h.45c.1.001.168-.016.205-.052.036-.037.054-.104.052-.203v-4.969c.002-.1-.016-.166-.052-.203-.037-.036-.105-.054-.205-.052h-.45a.308.308 0 0 0-.142.032.269.269 0 0 0-.104.096l-2.333 3.142a4.942 4.942 0 0 0-.578.956h-.032a5.433 5.433 0 0 0 .17-1.38v-2.591c.003-.1-.015-.166-.05-.203-.038-.036-.106-.054-.206-.052h-.45Zm5.438 1.539c-.002.674.173 1.178.528 1.514.355.335.903.503 1.645.503.632 0 1.081-.053 1.349-.16v1.827c0 .099.02.166.06.203.041.036.106.053.197.052h.45c.09.001.155-.016.195-.052.041-.037.061-.104.061-.203v-4.969c0-.1-.02-.166-.06-.203-.041-.036-.106-.054-.197-.052h-.45c-.09-.002-.155.016-.195.052-.042.037-.061.104-.061.203v2.25c-.321.128-.728.192-1.22.192-.9 0-1.35-.393-1.35-1.179v-1.263c.003-.09-.017-.154-.054-.195-.038-.04-.102-.06-.191-.06h-.45c-.1-.002-.168.016-.205.052-.036.037-.054.104-.052.203v1.285Zm5.62 1.89c0 .454.087.847.262 1.176.175.33.437.582.789.761.353.179.793.269 1.325.27.557 0 1.028-.09 1.411-.272.386-.18.682-.455.89-.82.118-.181.086-.32-.096-.415l-.289-.148c-.089-.059-.166-.08-.228-.064-.064.016-.127.069-.19.16a1.388 1.388 0 0 1-.59.55c-.25.122-.55.182-.897.182-.468-.002-.823-.112-1.067-.331-.243-.218-.366-.533-.367-.943v-.51h3.49c.133 0 .233-.032.297-.094.066-.064.098-.155.098-.278v-.615a2.35 2.35 0 0 0-.274-1.156 1.874 1.874 0 0 0-.814-.764c-.359-.182-.803-.274-1.331-.278-.525.002-.967.09-1.328.267-.358.179-.63.435-.813.773-.185.338-.278.749-.278 1.232v1.316Zm3.885-1.137h-2.932v-.307c0-.282.057-.52.167-.72.113-.199.279-.353.496-.457.218-.106.485-.161.803-.161.478.002.842.118 1.09.35.25.23.375.56.376.988v.307Zm1.842 1.2c0 .455.087.84.26 1.16.173.32.432.562.778.73.346.168.778.253 1.295.255 1.21 0 1.991-.489 2.345-1.465.031-.085.031-.158.001-.216-.032-.06-.093-.108-.184-.145l-.374-.107c-.098-.039-.175-.044-.227-.019-.052.027-.098.088-.137.19-.102.307-.268.539-.502.693-.231.154-.531.23-.9.23-.457-.003-.802-.113-1.037-.333-.235-.22-.353-.529-.355-.93V25.82c.002-.4.12-.71.355-.925.235-.216.58-.326 1.036-.327.37 0 .67.074.901.223.23.148.395.371.491.668.038.096.086.158.146.184.06.029.133.024.218-.014l.375-.116c.09-.032.15-.078.178-.137.027-.06.025-.134-.007-.224-.15-.473-.412-.828-.788-1.066-.375-.238-.866-.357-1.47-.357-.532.002-.976.087-1.331.253-.355.168-.621.41-.8.729-.178.317-.267.7-.267 1.152v1.518Zm9.42-.202a2.129 2.129 0 0 0-.384-.559 1.33 1.33 0 0 0-.473-.311l1.713-2.123c.08-.101.107-.176.08-.225-.027-.048-.107-.073-.24-.073h-.408a1.797 1.797 0 0 0-.239.009.307.307 0 0 0-.146.053.538.538 0 0 0-.118.13l-1.595 2.048h-.942v-1.985c.002-.1-.017-.166-.057-.203-.04-.036-.11-.054-.21-.052h-.428c-.1-.002-.17.016-.211.052-.04.037-.059.104-.057.203v4.958c-.002.1.018.168.057.209.041.039.11.058.21.056h.429c.1.002.17-.017.21-.056.04-.04.06-.11.057-.209v-2.091h.975c.165 0 .308.017.428.056.12.04.22.101.306.188.086.085.163.198.229.34l.739 1.539c.03.065.06.117.092.15.03.034.073.057.125.068.054.01.127.015.221.015h.418c.123 0 .196-.023.22-.069.026-.047.005-.123-.06-.228l-.942-1.89Zm2.119-3.29c-.1-.003-.168.015-.205.05-.036.038-.054.105-.052.204v4.969c0 .17.085.255.257.255h.45a.306.306 0 0 0 .256-.128l2.302-3.11c.123-.176.235-.344.335-.505.102-.161.19-.319.264-.472h.032c-.059.276-.102.53-.13.766a5.74 5.74 0 0 0-.04.646v2.548c-.003.099.015.166.05.203.038.036.106.053.206.052h.45c.1.001.167-.016.205-.052.035-.037.053-.104.051-.203v-4.969c.002-.1-.015-.166-.051-.203-.038-.036-.106-.054-.206-.052h-.45a.308.308 0 0 0-.142.032.27.27 0 0 0-.103.096l-2.334 3.142a4.947 4.947 0 0 0-.578.956h-.032a5.468 5.468 0 0 0 .171-1.38v-2.591c.002-.1-.016-.166-.051-.203-.038-.036-.105-.054-.205-.052h-.45Zm5.566 3.428c0 .455.088.848.262 1.177.175.33.437.582.789.761.353.179.794.269 1.325.27.557 0 1.028-.09 1.412-.272.385-.18.681-.455.89-.82.118-.181.085-.32-.097-.415l-.289-.148c-.089-.059-.166-.08-.228-.064-.064.016-.126.069-.189.16a1.39 1.39 0 0 1-.59.55c-.25.122-.55.182-.898.182-.467-.002-.822-.112-1.067-.331-.242-.218-.366-.533-.367-.943v-.51h3.49c.133 0 .233-.032.297-.094.066-.064.098-.155.098-.278v-.615c0-.443-.092-.827-.274-1.156a1.872 1.872 0 0 0-.814-.764c-.359-.182-.803-.274-1.33-.278-.525.002-.968.09-1.328.267-.359.179-.63.435-.814.773-.185.338-.278.749-.278 1.232v1.316Zm3.886-1.136h-2.933v-.307c0-.282.057-.52.167-.72.113-.199.279-.353.496-.457.218-.106.486-.161.803-.161.478.002.842.118 1.09.35.25.23.375.56.377.988v.307Zm8.178.998a2.138 2.138 0 0 0-.384-.559 1.327 1.327 0 0 0-.473-.311l1.713-2.123c.08-.101.107-.176.08-.225-.026-.048-.107-.073-.24-.073h-.407a1.794 1.794 0 0 0-.24.009.308.308 0 0 0-.146.053.534.534 0 0 0-.117.13l-1.595 2.048h-.942v-1.985c.002-.1-.018-.166-.057-.203-.041-.036-.111-.054-.211-.052h-.428c-.1-.002-.17.016-.21.052-.04.037-.06.104-.058.203v4.958c-.001.1.018.168.058.209.04.039.11.058.21.056h.428c.1.002.17-.017.21-.056.04-.04.06-.11.058-.209v-2.091h.974c.166 0 .309.017.428.056.12.04.221.101.307.188.085.085.162.198.228.34l.739 1.539c.03.065.06.117.092.15.03.034.074.057.125.068.054.01.127.015.222.015h.417c.123 0 .196-.023.222-.069.024-.047.003-.123-.061-.228l-.942-1.89Zm1.691.319c.002.423.098.786.289 1.086.19.303.464.535.82.697.358.162.788.243 1.289.245.512-.002.947-.083 1.304-.245.358-.162.631-.394.82-.697.188-.3.282-.663.284-1.086v-1.73c-.002-.427-.096-.792-.283-1.096a1.817 1.817 0 0 0-.821-.697c-.357-.163-.792-.244-1.304-.246-.501.002-.931.083-1.288.246-.357.16-.63.395-.821.697-.19.304-.287.669-.289 1.095v1.73Zm3.853 0c0 .244-.058.455-.174.628a1.096 1.096 0 0 1-.5.4c-.216.092-.476.14-.781.14-.302 0-.558-.048-.774-.14a1.096 1.096 0 0 1-.496-.4 1.12 1.12 0 0 1-.175-.628v-1.741c.001-.246.058-.455.175-.628.116-.176.28-.308.496-.4.215-.092.472-.14.774-.14.305 0 .566.048.781.14.218.092.384.224.5.4.116.173.174.382.174.628v1.74Zm6.038-3.61c-.091-.002-.155.016-.197.052-.04.037-.06.104-.06.203v1.985h-2.708v-1.985c.002-.1-.016-.166-.052-.203-.037-.036-.105-.054-.205-.052h-.45c-.1-.002-.168.016-.205.052-.035.037-.053.104-.052.203v4.969c0 .17.086.255.257.255h.45c.1.001.168-.016.205-.052.035-.037.053-.104.052-.203V27.01h2.708v2.102c0 .099.02.166.06.203.042.036.106.053.197.052h.45c.09.001.154-.016.196-.052.04-.037.06-.104.06-.203v-4.969c0-.1-.02-.166-.06-.203-.042-.036-.106-.054-.197-.052h-.45Zm1.852 3.493c0 .455.087.84.26 1.16.173.32.432.562.778.73.346.168.778.253 1.295.255 1.21 0 1.991-.489 2.344-1.465.032-.085.032-.158.002-.216a.343.343 0 0 0-.184-.145l-.374-.107c-.099-.039-.175-.044-.227-.019-.051.027-.098.088-.137.19-.102.307-.268.539-.501.693-.232.154-.532.23-.902.23-.456-.003-.8-.113-1.036-.333-.236-.22-.353-.529-.355-.93V25.82c.002-.4.12-.71.355-.925.236-.216.58-.326 1.036-.327.37 0 .67.074.902.223.23.148.394.371.49.668.038.096.086.158.147.184.058.029.131.024.217-.014l.375-.116c.09-.032.15-.078.178-.137.027-.06.025-.134-.007-.224-.15-.473-.412-.828-.789-1.066-.374-.238-.865-.357-1.47-.357-.531.002-.975.087-1.33.253-.356.168-.621.41-.8.729-.178.317-.267.7-.267 1.152v1.518Zm9.623-3.493c-.091-.002-.155.016-.196.052-.042.037-.061.104-.061.203v4.088c-.24.074-.476.13-.705.168-.23.037-.451.054-.665.054-.45 0-.787-.106-1.012-.316-.225-.213-.337-.528-.337-.947v-3.047c.002-.09-.018-.154-.055-.195-.038-.04-.102-.06-.191-.06h-.45c-.1-.002-.167.016-.205.052-.035.037-.053.104-.052.203v3.079c0 .7.182 1.226.544 1.576.364.35.907.526 1.63.526.224 0 .461-.02.713-.057.25-.037.512-.092.785-.166v.573c0 .467-.114.818-.345 1.052-.228.233-.57.35-1.025.35-.305 0-.567-.059-.789-.177-.22-.117-.4-.296-.539-.534a.487.487 0 0 0-.12-.123.192.192 0 0 0-.128-.028.507.507 0 0 0-.17.055l-.31.17c-.09.048-.146.104-.165.17-.02.065 0 .143.058.233.21.361.493.632.855.812.36.181.8.271 1.318.271 1.542 0 2.313-.764 2.313-2.293v-5.489c.001-.1-.017-.166-.052-.203-.038-.036-.105-.054-.205-.052h-.44Zm2.836 0c-.099-.002-.167.016-.205.052-.035.037-.053.104-.051.203V25.8c0 .552-.027 1.014-.083 1.386-.057.371-.142.653-.26.844a1.943 1.943 0 0 1-.211.293c-.064.071-.132.131-.203.177a2.944 2.944 0 0 1-.26.145.249.249 0 0 0-.113.13.236.236 0 0 0 .016.168l.225.424c.038.07.08.114.132.135.05.021.109.02.179-.007a3.35 3.35 0 0 0 .39-.218c.114-.078.223-.171.325-.283a2.69 2.69 0 0 0 .312-.423c.161-.255.28-.61.361-1.063.08-.453.121-1.002.121-1.644V24.77h2.066v4.343c-.002.099.016.166.051.203.038.036.106.053.205.052h.439c.091.001.156-.016.197-.052.041-.037.06-.104.06-.203v-4.969c0-.1-.019-.166-.06-.203-.041-.036-.106-.054-.197-.052h-3.436Zm5.909 1.656v-1.401c.002-.1-.016-.166-.052-.203-.037-.036-.105-.054-.205-.052h-.449c-.1-.002-.168.016-.205.052-.036.037-.054.104-.052.203v4.969c-.002.099.016.166.052.203.037.036.105.053.205.052h2.365c.412-.002.766-.08 1.058-.232.293-.152.518-.372.675-.659.157-.286.235-.63.237-1.031-.002-.398-.08-.738-.237-1.021a1.58 1.58 0 0 0-.675-.651c-.292-.15-.646-.227-1.058-.229h-1.659Zm0 2.973v-2.113h1.541c.341.004.605.096.794.278.19.182.286.436.288.763-.002.338-.098.6-.288.787-.189.188-.453.282-.794.285h-1.541Zm4.325-4.629c-.1-.002-.168.016-.206.052-.035.037-.053.104-.051.203v.372c-.002.09.016.154.051.194.038.04.106.06.206.06h1.562v4.343c-.001.099.017.166.052.203.038.036.105.053.205.052h.45c.089.001.153-.016.191-.052.037-.037.057-.104.055-.203V24.77h1.563c.091 0 .155-.02.196-.06.041-.04.061-.104.061-.194v-.372c0-.1-.02-.166-.061-.203-.041-.036-.105-.054-.196-.052h-4.078Zm5.041.956c-.043.085-.053.157-.03.216.022.06.079.108.17.145l.332.148a.47.47 0 0 0 .153.037.136.136 0 0 0 .096-.038.99.99 0 0 0 .104-.126c.134-.218.31-.38.531-.487.22-.108.485-.16.796-.16.312 0 .562.049.749.144a.852.852 0 0 1 .403.427c.082.19.124.42.122.692v.403a9.732 9.732 0 0 0-1.221-.074c-.572-.002-1.032.051-1.384.16-.351.107-.607.282-.767.526-.159.246-.237.572-.236.98 0 .293.043.546.127.758.086.212.211.384.377.517.165.138.403.24.711.31.309.068.685.104 1.13.104.401 0 .754-.023 1.061-.071.305-.046.566-.115.78-.205.1-.041.176-.085.234-.131a.372.372 0 0 0 .117-.18.987.987 0 0 0 .034-.295v-2.77c.002-.445-.069-.827-.216-1.147a1.557 1.557 0 0 0-.706-.738c-.327-.172-.757-.258-1.294-.26-.529 0-.976.092-1.339.278a1.901 1.901 0 0 0-.834.837Zm3.426 3.524a.247.247 0 0 1-.04.146.26.26 0 0 1-.121.088c-.246.085-.642.127-1.188.127-.33 0-.589-.031-.778-.097-.189-.064-.325-.163-.403-.294a.945.945 0 0 1-.114-.5.913.913 0 0 1 .123-.51c.084-.13.221-.228.414-.29.194-.062.453-.092.779-.092.156 0 .345.007.568.023.223.014.476.035.76.062v1.337Zm6.733.117v-4.342c0-.1-.02-.166-.061-.203-.041-.036-.105-.054-.196-.052h-.45c-.091-.002-.155.016-.196.052-.041.037-.061.104-.061.203v4.342h-2.601v-4.342c.002-.1-.016-.166-.051-.203-.038-.036-.106-.054-.206-.052h-.449c-.171 0-.257.085-.257.255v4.969c-.002.099.016.166.052.203.037.036.105.053.205.052h4.142v1.22c0 .09.02.154.061.195.041.04.107.06.196.06h.418c.1 0 .167-.02.205-.06.036-.04.053-.104.051-.195v-1.836c.002-.1-.015-.168-.051-.21-.038-.038-.105-.058-.205-.056h-.546ZM128.978 23.89c-.1-.002-.167.015-.205.05-.036.038-.054.105-.052.204v4.969c0 .17.086.255.257.255h.45a.304.304 0 0 0 .256-.128l2.302-3.11c.123-.176.235-.344.335-.505.102-.16.19-.318.264-.472h.033c-.059.276-.102.53-.131.766a5.91 5.91 0 0 0-.041.646v2.548c-.001.099.016.166.052.203.037.036.105.053.205.052h.45c.1.002.168-.016.205-.052.035-.037.053-.104.052-.203v-4.969c.001-.099-.017-.166-.052-.203-.037-.036-.105-.053-.205-.052h-.45a.303.303 0 0 0-.142.032.27.27 0 0 0-.104.096l-2.334 3.142a4.978 4.978 0 0 0-.578.956h-.032c.059-.228.102-.457.13-.687.027-.228.041-.46.041-.693v-2.59c.002-.1-.015-.167-.051-.204-.038-.036-.106-.053-.205-.052h-.45Zm6.016 0c-.1-.002-.168.015-.205.05-.036.038-.054.105-.052.204v4.969c0 .17.086.255.257.255h.449a.306.306 0 0 0 .257-.128l2.302-3.11c.123-.176.235-.344.335-.505.102-.16.189-.318.264-.472h.033c-.059.276-.102.53-.131.766-.027.234-.041.45-.041.646v2.548c-.002.099.016.166.052.203.037.036.105.053.205.052h.45c.1.002.167-.016.205-.052.035-.037.053-.104.052-.203v-4.969c.001-.099-.017-.166-.052-.203-.038-.036-.105-.053-.205-.052h-.45a.307.307 0 0 0-.143.032.26.26 0 0 0-.103.096l-2.334 3.142a4.978 4.978 0 0 0-.578.956h-.032c.059-.228.102-.457.13-.687.027-.228.041-.46.041-.693v-2.59c.002-.1-.016-.167-.051-.204-.038-.036-.106-.053-.206-.052h-.449Zm8.028 3.61c.002.422.098.785.289 1.086.191.302.464.534.821.697.357.16.787.242 1.288.244.512-.002.947-.083 1.304-.244.359-.163.632-.395.821-.697.187-.301.281-.664.283-1.087v-1.73c-.002-.427-.096-.791-.283-1.096a1.814 1.814 0 0 0-.821-.697c-.357-.163-.792-.244-1.304-.246-.501.002-.931.083-1.288.246-.357.161-.63.395-.821.697-.191.305-.287.67-.289 1.096v1.73Zm3.854 0c0 .243-.059.454-.175.627a1.096 1.096 0 0 1-.5.4c-.215.092-.476.14-.781.14a1.96 1.96 0 0 1-.774-.14 1.095 1.095 0 0 1-.496-.4 1.122 1.122 0 0 1-.175-.628v-1.741c.002-.246.059-.455.175-.628.116-.175.28-.308.496-.4a1.96 1.96 0 0 1 .774-.14c.305 0 .566.048.781.14.218.092.384.225.5.4.116.173.175.382.175.628v1.741Zm6.037-3.61c-.091-.002-.155.015-.196.05-.041.038-.061.105-.061.204v1.986h-2.708v-1.986c.002-.099-.016-.166-.052-.203-.037-.036-.105-.053-.205-.052h-.45c-.1-.001-.167.016-.205.052-.036.037-.053.104-.052.203v4.969c0 .17.086.255.257.255h.45c.1.002.168-.016.205-.052.036-.037.054-.104.052-.203V27.01h2.708v2.102c0 .099.02.166.061.203.041.036.105.053.196.052h.449c.091.002.156-.016.197-.052.041-.037.06-.104.06-.203v-4.969c0-.099-.019-.166-.06-.203-.041-.036-.106-.053-.197-.052h-.449Zm2.869 0c-.1-.002-.168.015-.206.05-.035.038-.053.105-.051.204v1.657c0 .552-.027 1.013-.082 1.385-.057.372-.143.653-.261.844a1.947 1.947 0 0 1-.21.294c-.065.07-.132.13-.204.177a2.944 2.944 0 0 1-.26.145.252.252 0 0 0-.113.129.237.237 0 0 0 .017.168l.224.425a.282.282 0 0 0 .132.134c.05.021.109.02.179-.007a3.27 3.27 0 0 0 .39-.218 1.87 1.87 0 0 0 .325-.283c.103-.111.207-.25.312-.423.161-.254.28-.61.361-1.063.08-.453.121-1.002.121-1.644v-1.093h2.066v4.342c-.002.099.016.166.052.203.037.036.105.053.205.052h.439c.091.002.155-.016.196-.052.041-.037.06-.104.06-.203v-4.969c0-.099-.019-.166-.06-.203-.041-.036-.105-.053-.196-.052h-3.436Zm4.838.955c-.043.085-.054.157-.03.216.021.06.078.108.169.145l.332.149a.484.484 0 0 0 .153.037.139.139 0 0 0 .097-.04c.028-.027.062-.068.103-.125.134-.218.311-.38.532-.486.219-.108.485-.162.796-.162.312 0 .561.05.749.146a.856.856 0 0 1 .403.426c.082.19.123.42.121.692v.403a9.733 9.733 0 0 0-1.22-.074c-.573-.002-1.033.051-1.384.16-.352.107-.607.282-.768.527-.158.246-.237.571-.235.98 0 .292.043.545.127.757.085.213.21.384.376.517.166.138.403.24.712.31.309.069.685.104 1.129.104.401 0 .755-.023 1.062-.07.305-.047.565-.116.779-.206.1-.04.177-.085.234-.131a.382.382 0 0 0 .118-.18 1.02 1.02 0 0 0 .034-.294v-2.771c.001-.444-.07-.827-.216-1.147a1.559 1.559 0 0 0-.707-.738c-.326-.171-.756-.258-1.293-.26-.53 0-.976.092-1.34.278a1.9 1.9 0 0 0-.833.837Zm3.425 3.525a.247.247 0 0 1-.039.145.27.27 0 0 1-.121.088c-.246.085-.643.128-1.189.128-.33 0-.588-.032-.777-.098-.19-.063-.325-.162-.404-.293a.965.965 0 0 1-.114-.501.93.93 0 0 1 .123-.51c.084-.13.222-.228.414-.29.195-.062.454-.092.78-.092.155 0 .344.007.567.023.223.014.477.036.76.062v1.338Zm6.241-6.36c.016-.053.016-.099-.002-.136a.225.225 0 0 0-.116-.097l-.375-.138c-.107-.032-.182 0-.224.095-.139.467-.45.7-.932.7-.24 0-.437-.058-.588-.174-.152-.117-.263-.292-.332-.526a.153.153 0 0 0-.096-.09.315.315 0 0 0-.161.005l-.332.128c-.059.016-.096.044-.116.085a.22.22 0 0 0-.002.148c.124.377.32.659.589.846.27.186.616.28 1.038.28.429 0 .78-.094 1.053-.28.275-.188.473-.469.596-.846Zm-3.779 1.88c-.1-.002-.168.015-.205.05-.035.038-.053.105-.052.204v4.969c0 .17.086.255.257.255h.45a.307.307 0 0 0 .257-.128l2.301-3.11c.123-.176.236-.344.336-.505.101-.16.189-.318.264-.472h.032c-.059.276-.102.53-.13.766-.027.234-.041.45-.041.646v2.548c-.002.099.015.166.051.203.038.036.106.053.205.052h.45c.1.002.168-.016.205-.052.036-.037.054-.104.052-.203v-4.969c.002-.099-.016-.166-.052-.203-.037-.036-.105-.053-.205-.052h-.45a.306.306 0 0 0-.142.032.263.263 0 0 0-.104.096l-2.333 3.142a4.928 4.928 0 0 0-.578.956h-.033a5.473 5.473 0 0 0 .172-1.38v-2.59c.002-.1-.016-.167-.052-.204-.037-.036-.105-.053-.205-.052h-.45Zm9.688 0c-.091-.002-.155.015-.197.05-.041.038-.06.105-.06.204v1.986h-2.708v-1.986c.001-.099-.017-.166-.052-.203-.038-.036-.105-.053-.205-.052h-.45c-.1-.001-.168.016-.205.052-.036.037-.054.104-.052.203v4.969c0 .17.086.255.257.255h.45c.1.002.167-.016.205-.052.035-.037.053-.104.052-.203V27.01h2.708v2.102c0 .099.019.166.06.203.042.036.106.053.197.052h.449c.091.002.155-.016.197-.052.041-.037.06-.104.06-.203v-4.969c0-.099-.019-.166-.06-.203-.042-.036-.106-.053-.197-.052h-.449Z"/><path fill="#140A32" d="M5.419 26.15h-1.21v-2.006c.002-.1-.016-.166-.052-.203-.037-.036-.105-.054-.205-.052h-.45c-.1-.002-.167.016-.205.052-.035.037-.053.104-.051.203v4.969c0 .17.085.255.257.255h.45c.1.001.167-.016.204-.052.036-.037.054-.104.052-.203v-2.081h1.21v.477c.001.423.094.784.276 1.085.184.301.45.531.8.69.347.16.77.241 1.268.243.501-.002.926-.083 1.277-.243.35-.159.618-.389.801-.69.182-.3.275-.662.277-1.085v-1.762c-.002-.423-.095-.784-.277-1.085-.183-.3-.451-.53-.8-.69-.352-.16-.777-.24-1.278-.242-.498.002-.92.081-1.268.242-.35.16-.616.39-.8.69-.182.301-.275.662-.276 1.085v.404Zm3.735 1.36c0 .24-.057.447-.167.62a1.06 1.06 0 0 1-.478.397c-.207.092-.455.14-.746.14-.29 0-.537-.048-.744-.14a1.049 1.049 0 0 1-.471-.396 1.146 1.146 0 0 1-.166-.622v-1.762c.002-.244.055-.453.166-.626.109-.172.266-.303.471-.395.207-.09.455-.136.744-.136.446.002.79.102 1.03.304.238.2.36.485.361.853v1.762Zm2.527-3.472a.997.997 0 0 0-.26.14.375.375 0 0 0-.126.184.9.9 0 0 0-.032.281v6.805c-.002.09.018.154.056.195.037.04.101.06.19.06h.45c.1.002.168-.016.205-.051.036-.037.054-.105.052-.204V29.24c.278.096.533.166.764.214.231.048.44.073.627.073 1.52 0 2.28-.722 2.28-2.166v-1.497c0-.711-.187-1.246-.56-1.602-.374-.355-.933-.532-1.677-.532-.39 0-.749.026-1.077.078-.327.053-.625.129-.892.23Zm3.243 3.291c0 .44-.114.772-.346.994-.232.222-.58.333-1.045.333a2.78 2.78 0 0 1-.586-.07 6.39 6.39 0 0 1-.731-.206v-3.397c-.002-.062.007-.108.029-.14.02-.032.064-.058.132-.083a3.978 3.978 0 0 1 1.134-.16c.471 0 .824.108 1.06.326.235.216.353.54.353.97v1.433Zm2.376-3.44c-.1-.002-.167.016-.205.052-.035.037-.053.104-.051.203v4.969c0 .17.085.255.256.255h.45a.306.306 0 0 0 .257-.128l2.301-3.11c.123-.176.236-.344.336-.505.101-.161.189-.319.264-.472h.032c-.059.276-.102.53-.13.766a5.72 5.72 0 0 0-.041.646v2.548c-.002.099.016.166.051.203.038.036.106.053.206.052h.45c.099.001.167-.016.204-.052.036-.037.054-.104.052-.203v-4.969c.002-.1-.016-.166-.052-.203-.037-.036-.105-.054-.205-.052h-.45a.308.308 0 0 0-.142.032.267.267 0 0 0-.104.096l-2.333 3.142a4.942 4.942 0 0 0-.578.956h-.032a5.433 5.433 0 0 0 .17-1.38v-2.591c.003-.1-.015-.166-.05-.203-.038-.036-.106-.054-.206-.052h-.45Zm10.587 4.597v-4.342c0-.1-.02-.166-.06-.203-.042-.036-.106-.054-.197-.052h-3.532c-.091-.002-.156.016-.197.052-.04.037-.06.104-.06.203v1.603c0 .44-.016.818-.047 1.133a4.069 4.069 0 0 1-.135.757c-.064.196-.14.364-.227.504-.085.14-.185.255-.298.345h-.289c-.089-.002-.153.018-.19.057-.038.04-.058.11-.056.209v1.836c-.002.09.018.154.055.195.038.04.102.06.191.06h.418c.09 0 .159-.021.201-.064.045-.042.066-.106.066-.19v-1.221h4.229v1.22c0 .09.02.154.06.195.041.04.107.06.196.06h.418c.1 0 .168-.02.205-.06.036-.04.054-.104.052-.195v-1.836c.002-.1-.016-.168-.052-.21-.037-.038-.105-.058-.205-.056h-.546Zm-3.115-3.716h2.152v3.716h-2.687c.177-.255.31-.605.4-1.053.09-.445.135-.99.135-1.633v-1.03Zm5.02-.88c-.1-.003-.167.015-.205.05-.035.038-.053.105-.052.204v4.969c0 .17.086.255.257.255h.45a.306.306 0 0 0 .257-.128l2.301-3.11c.123-.176.236-.344.336-.505.101-.161.189-.319.264-.472h.032c-.06.276-.102.53-.13.766-.027.233-.041.45-.041.646v2.548c-.002.099.016.166.051.203.038.036.105.053.205.052h.45c.1.001.168-.016.205-.052.036-.037.054-.104.052-.203v-4.969c.002-.1-.016-.166-.052-.203-.037-.036-.105-.054-.205-.052h-.45a.308.308 0 0 0-.142.032.269.269 0 0 0-.104.096l-2.333 3.142a4.942 4.942 0 0 0-.578.956h-.032a5.433 5.433 0 0 0 .17-1.38v-2.591c.003-.1-.015-.166-.05-.203-.038-.036-.106-.054-.206-.052h-.45Zm5.438 1.539c-.002.674.173 1.178.528 1.514.355.335.903.503 1.645.503.632 0 1.081-.053 1.349-.16v1.827c0 .099.02.166.06.203.041.036.106.053.197.052h.45c.09.001.155-.016.195-.052.041-.037.061-.104.061-.203v-4.969c0-.1-.02-.166-.06-.203-.041-.036-.106-.054-.197-.052h-.45c-.09-.002-.155.016-.195.052-.042.037-.061.104-.061.203v2.25c-.321.128-.728.192-1.22.192-.9 0-1.35-.393-1.35-1.179v-1.263c.003-.09-.017-.154-.054-.195-.038-.04-.102-.06-.191-.06h-.45c-.1-.002-.168.016-.205.052-.036.037-.054.104-.052.203v1.285Zm5.62 1.89c0 .454.087.847.262 1.176.175.33.437.582.789.761.353.179.793.269 1.325.27.557 0 1.028-.09 1.411-.272.386-.18.682-.455.89-.82.118-.181.086-.32-.096-.415l-.289-.148c-.089-.059-.166-.08-.228-.064-.064.016-.127.069-.19.16a1.388 1.388 0 0 1-.59.55c-.25.122-.55.182-.897.182-.468-.002-.823-.112-1.067-.331-.243-.218-.366-.533-.367-.943v-.51h3.49c.133 0 .233-.032.297-.094.066-.064.098-.155.098-.278v-.615a2.35 2.35 0 0 0-.274-1.156 1.874 1.874 0 0 0-.814-.764c-.359-.182-.803-.274-1.331-.278-.525.002-.967.09-1.328.267-.358.179-.63.435-.813.773-.185.338-.278.749-.278 1.232v1.316Zm3.885-1.137h-2.932v-.307c0-.282.057-.52.167-.72.113-.199.279-.353.496-.457.218-.106.485-.161.803-.161.478.002.842.118 1.09.35.25.23.375.56.376.988v.307Zm1.842 1.2c0 .455.087.84.26 1.16.173.32.432.562.778.73.346.168.778.253 1.295.255 1.21 0 1.991-.489 2.345-1.465.031-.085.031-.158.001-.216-.032-.06-.093-.108-.184-.145l-.374-.107c-.098-.039-.175-.044-.227-.019-.052.027-.098.088-.137.19-.102.307-.268.539-.502.693-.231.154-.531.23-.9.23-.457-.003-.802-.113-1.037-.333-.235-.22-.353-.529-.355-.93V25.82c.002-.4.12-.71.355-.925.235-.216.58-.326 1.036-.327.37 0 .67.074.901.223.23.148.395.371.491.668.038.096.086.158.146.184.06.029.133.024.218-.014l.375-.116c.09-.032.15-.078.178-.137.027-.06.025-.134-.007-.224-.15-.473-.412-.828-.788-1.066-.375-.238-.866-.357-1.47-.357-.532.002-.976.087-1.331.253-.355.168-.621.41-.8.729-.178.317-.267.7-.267 1.152v1.518Zm9.42-.202a2.129 2.129 0 0 0-.384-.559 1.33 1.33 0 0 0-.473-.311l1.713-2.123c.08-.101.107-.176.08-.225-.027-.048-.107-.073-.24-.073h-.408a1.797 1.797 0 0 0-.239.009.307.307 0 0 0-.146.053.538.538 0 0 0-.118.13l-1.595 2.048h-.942v-1.985c.002-.1-.017-.166-.057-.203-.04-.036-.11-.054-.21-.052h-.428c-.1-.002-.17.016-.211.052-.04.037-.059.104-.057.203v4.958c-.002.1.018.168.057.209.041.039.11.058.21.056h.429c.1.002.17-.017.21-.056.04-.04.06-.11.057-.209v-2.091h.975c.165 0 .308.017.428.056.12.04.22.101.306.188.086.085.163.198.229.34l.739 1.539c.03.065.06.117.092.15.03.034.073.057.125.068.054.01.127.015.221.015h.418c.123 0 .196-.023.22-.069.026-.047.005-.123-.06-.228l-.942-1.89Zm2.119-3.29c-.1-.003-.168.015-.205.05-.036.038-.054.105-.052.204v4.969c0 .17.085.255.257.255h.45a.306.306 0 0 0 .256-.128l2.302-3.11c.123-.176.235-.344.335-.505.102-.161.19-.319.264-.472h.032c-.059.276-.102.53-.13.766a5.74 5.74 0 0 0-.04.646v2.548c-.003.099.015.166.05.203.038.036.106.053.206.052h.45c.1.001.167-.016.205-.052.035-.037.053-.104.051-.203v-4.969c.002-.1-.015-.166-.051-.203-.038-.036-.106-.054-.206-.052h-.45a.308.308 0 0 0-.142.032.27.27 0 0 0-.103.096l-2.334 3.142a4.947 4.947 0 0 0-.578.956h-.032a5.468 5.468 0 0 0 .171-1.38v-2.591c.002-.1-.016-.166-.051-.203-.038-.036-.105-.054-.205-.052h-.45Zm5.566 3.428c0 .455.088.848.262 1.177.175.33.437.582.789.761.353.179.794.269 1.325.27.557 0 1.028-.09 1.412-.272.385-.18.681-.455.89-.82.118-.181.085-.32-.097-.415l-.289-.148c-.089-.059-.166-.08-.228-.064-.064.016-.126.069-.189.16a1.39 1.39 0 0 1-.59.55c-.25.122-.55.182-.898.182-.467-.002-.822-.112-1.067-.331-.242-.218-.366-.533-.367-.943v-.51h3.49c.133 0 .233-.032.297-.094.066-.064.098-.155.098-.278v-.615c0-.443-.092-.827-.274-1.156a1.872 1.872 0 0 0-.814-.764c-.359-.182-.803-.274-1.33-.278-.525.002-.968.09-1.328.267-.359.179-.63.435-.814.773-.185.338-.278.749-.278 1.232v1.316Zm3.886-1.136h-2.933v-.307c0-.282.057-.52.167-.72.113-.199.279-.353.496-.457.218-.106.486-.161.803-.161.478.002.842.118 1.09.35.25.23.375.56.377.988v.307Zm8.178.998a2.138 2.138 0 0 0-.384-.559 1.327 1.327 0 0 0-.473-.311l1.713-2.123c.08-.101.107-.176.08-.225-.026-.048-.107-.073-.24-.073h-.407a1.794 1.794 0 0 0-.24.009.308.308 0 0 0-.146.053.534.534 0 0 0-.117.13l-1.595 2.048h-.942v-1.985c.002-.1-.018-.166-.057-.203-.041-.036-.111-.054-.211-.052h-.428c-.1-.002-.17.016-.21.052-.04.037-.06.104-.058.203v4.958c-.001.1.018.168.058.209.04.039.11.058.21.056h.428c.1.002.17-.017.21-.056.04-.04.06-.11.058-.209v-2.091h.974c.166 0 .309.017.428.056.12.04.221.101.307.188.085.085.162.198.228.34l.739 1.539c.03.065.06.117.092.15.03.034.074.057.125.068.054.01.127.015.222.015h.417c.123 0 .196-.023.222-.069.024-.047.003-.123-.061-.228l-.942-1.89Zm1.691.319c.002.423.098.786.289 1.086.19.303.464.535.82.697.358.162.788.243 1.289.245.512-.002.947-.083 1.304-.245.358-.162.631-.394.82-.697.188-.3.282-.663.284-1.086v-1.73c-.002-.427-.096-.792-.283-1.096a1.817 1.817 0 0 0-.821-.697c-.357-.163-.792-.244-1.304-.246-.501.002-.931.083-1.288.246-.357.16-.63.395-.821.697-.19.304-.287.669-.289 1.095v1.73Zm3.853 0c0 .244-.058.455-.174.628a1.096 1.096 0 0 1-.5.4c-.216.092-.476.14-.781.14-.302 0-.558-.048-.774-.14a1.096 1.096 0 0 1-.496-.4 1.12 1.12 0 0 1-.175-.628v-1.741c.001-.246.058-.455.175-.628.116-.176.28-.308.496-.4.215-.092.472-.14.774-.14.305 0 .566.048.781.14.218.092.384.224.5.4.116.173.174.382.174.628v1.74Zm6.038-3.61c-.091-.002-.155.016-.197.052-.04.037-.06.104-.06.203v1.985h-2.708v-1.985c.002-.1-.016-.166-.052-.203-.037-.036-.105-.054-.205-.052h-.45c-.1-.002-.168.016-.205.052-.035.037-.053.104-.052.203v4.969c0 .17.086.255.257.255h.45c.1.001.168-.016.205-.052.035-.037.053-.104.052-.203V27.01h2.708v2.102c0 .099.02.166.06.203.042.036.106.053.197.052h.45c.09.001.154-.016.196-.052.04-.037.06-.104.06-.203v-4.969c0-.1-.02-.166-.06-.203-.042-.036-.106-.054-.197-.052h-.45Zm1.852 3.493c0 .455.087.84.26 1.16.173.32.432.562.778.73.346.168.778.253 1.295.255 1.21 0 1.991-.489 2.344-1.465.032-.085.032-.158.002-.216a.343.343 0 0 0-.184-.145l-.374-.107c-.099-.039-.175-.044-.227-.019-.051.027-.098.088-.137.19-.102.307-.268.539-.501.693-.232.154-.532.23-.902.23-.456-.003-.8-.113-1.036-.333-.236-.22-.353-.529-.355-.93V25.82c.002-.4.12-.71.355-.925.236-.216.58-.326 1.036-.327.37 0 .67.074.902.223.23.148.394.371.49.668.038.096.086.158.147.184.058.029.131.024.217-.014l.375-.116c.09-.032.15-.078.178-.137.027-.06.025-.134-.007-.224-.15-.473-.412-.828-.789-1.066-.374-.238-.865-.357-1.47-.357-.531.002-.975.087-1.33.253-.356.168-.621.41-.8.729-.178.317-.267.7-.267 1.152v1.518Zm9.623-3.493c-.091-.002-.155.016-.196.052-.042.037-.061.104-.061.203v4.088c-.24.074-.476.13-.705.168-.23.037-.451.054-.665.054-.45 0-.787-.106-1.012-.316-.225-.213-.337-.528-.337-.947v-3.047c.002-.09-.018-.154-.055-.195-.038-.04-.102-.06-.191-.06h-.45c-.1-.002-.167.016-.205.052-.035.037-.053.104-.052.203v3.079c0 .7.182 1.226.544 1.576.364.35.907.526 1.63.526.224 0 .461-.02.713-.057.25-.037.512-.092.785-.166v.573c0 .467-.114.818-.345 1.052-.228.233-.57.35-1.025.35-.305 0-.567-.059-.789-.177-.22-.117-.4-.296-.539-.534a.487.487 0 0 0-.12-.123.192.192 0 0 0-.128-.028.507.507 0 0 0-.17.055l-.31.17c-.09.048-.146.104-.165.17-.02.065 0 .143.058.233.21.361.493.632.855.812.36.181.8.271 1.318.271 1.542 0 2.313-.764 2.313-2.293v-5.489c.001-.1-.017-.166-.052-.203-.038-.036-.105-.054-.205-.052h-.44Zm2.836 0c-.099-.002-.167.016-.205.052-.035.037-.053.104-.051.203V25.8c0 .552-.027 1.014-.083 1.386-.057.371-.142.653-.26.844a1.943 1.943 0 0 1-.211.293c-.064.071-.132.131-.203.177a2.944 2.944 0 0 1-.26.145.249.249 0 0 0-.113.13.236.236 0 0 0 .016.168l.225.424c.038.07.08.114.132.135.05.021.109.02.179-.007a3.35 3.35 0 0 0 .39-.218c.114-.078.223-.171.325-.283a2.69 2.69 0 0 0 .312-.423c.161-.255.28-.61.361-1.063.08-.453.121-1.002.121-1.644V24.77h2.066v4.343c-.002.099.016.166.051.203.038.036.106.053.205.052h.439c.091.001.156-.016.197-.052.041-.037.06-.104.06-.203v-4.969c0-.1-.019-.166-.06-.203-.041-.036-.106-.054-.197-.052h-3.436Zm5.909 1.656v-1.401c.002-.1-.016-.166-.052-.203-.037-.036-.105-.054-.205-.052h-.449c-.1-.002-.168.016-.205.052-.036.037-.054.104-.052.203v4.969c-.002.099.016.166.052.203.037.036.105.053.205.052h2.365c.412-.002.766-.08 1.058-.232.293-.152.518-.372.675-.659.157-.286.235-.63.237-1.031-.002-.398-.08-.738-.237-1.021a1.58 1.58 0 0 0-.675-.651c-.292-.15-.646-.227-1.058-.229h-1.659Zm0 2.973v-2.113h1.541c.341.004.605.096.794.278.19.182.286.436.288.763-.002.338-.098.6-.288.787-.189.188-.453.282-.794.285h-1.541Zm4.325-4.629c-.1-.002-.168.016-.206.052-.035.037-.053.104-.051.203v.372c-.002.09.016.154.051.194.038.04.106.06.206.06h1.562v4.343c-.001.099.017.166.052.203.038.036.105.053.205.052h.45c.089.001.153-.016.191-.052.037-.037.057-.104.055-.203V24.77h1.563c.091 0 .155-.02.196-.06.041-.04.061-.104.061-.194v-.372c0-.1-.02-.166-.061-.203-.041-.036-.105-.054-.196-.052h-4.078Zm5.041.956c-.043.085-.053.157-.03.216.022.06.079.108.17.145l.332.148a.47.47 0 0 0 .153.037.136.136 0 0 0 .096-.038.99.99 0 0 0 .104-.126c.134-.218.31-.38.531-.487.22-.108.485-.16.796-.16.312 0 .562.049.749.144a.852.852 0 0 1 .403.427c.082.19.124.42.122.692v.403a9.732 9.732 0 0 0-1.221-.074c-.572-.002-1.032.051-1.384.16-.351.107-.607.282-.767.526-.159.246-.237.572-.236.98 0 .293.043.546.127.758.086.212.211.384.377.517.165.138.403.24.711.31.309.068.685.104 1.13.104.401 0 .754-.023 1.061-.071.305-.046.566-.115.78-.205.1-.041.176-.085.234-.131a.372.372 0 0 0 .117-.18.987.987 0 0 0 .034-.295v-2.77c.002-.445-.069-.827-.216-1.147a1.557 1.557 0 0 0-.706-.738c-.327-.172-.757-.258-1.294-.26-.529 0-.976.092-1.339.278a1.901 1.901 0 0 0-.834.837Zm3.426 3.524a.247.247 0 0 1-.04.146.26.26 0 0 1-.121.088c-.246.085-.642.127-1.188.127-.33 0-.589-.031-.778-.097-.189-.064-.325-.163-.403-.294a.945.945 0 0 1-.114-.5.913.913 0 0 1 .123-.51c.084-.13.221-.228.414-.29.194-.062.453-.092.779-.092.156 0 .345.007.568.023.223.014.476.035.76.062v1.337Zm6.733.117v-4.342c0-.1-.02-.166-.061-.203-.041-.036-.105-.054-.196-.052h-.45c-.091-.002-.155.016-.196.052-.041.037-.061.104-.061.203v4.342h-2.601v-4.342c.002-.1-.016-.166-.051-.203-.038-.036-.106-.054-.206-.052h-.449c-.171 0-.257.085-.257.255v4.969c-.002.099.016.166.052.203.037.036.105.053.205.052h4.142v1.22c0 .09.02.154.061.195.041.04.107.06.196.06h.418c.1 0 .167-.02.205-.06.036-.04.053-.104.051-.195v-1.836c.002-.1-.015-.168-.051-.21-.038-.038-.105-.058-.205-.056h-.546ZM128.978 23.89c-.1-.002-.167.015-.205.05-.036.038-.054.105-.052.204v4.969c0 .17.086.255.257.255h.45a.304.304 0 0 0 .256-.128l2.302-3.11c.123-.176.235-.344.335-.505.102-.16.19-.318.264-.472h.033c-.059.276-.102.53-.131.766a5.91 5.91 0 0 0-.041.646v2.548c-.001.099.016.166.052.203.037.036.105.053.205.052h.45c.1.002.168-.016.205-.052.035-.037.053-.104.052-.203v-4.969c.001-.099-.017-.166-.052-.203-.037-.036-.105-.053-.205-.052h-.45a.303.303 0 0 0-.142.032.27.27 0 0 0-.104.096l-2.334 3.142a4.978 4.978 0 0 0-.578.956h-.032c.059-.228.102-.457.13-.687.027-.228.041-.46.041-.693v-2.59c.002-.1-.015-.167-.051-.204-.038-.036-.106-.053-.205-.052h-.45Zm6.016 0c-.1-.002-.168.015-.205.05-.036.038-.054.105-.052.204v4.969c0 .17.086.255.257.255h.449a.306.306 0 0 0 .257-.128l2.302-3.11c.123-.176.235-.344.335-.505.102-.16.189-.318.264-.472h.033c-.059.276-.102.53-.131.766-.027.234-.041.45-.041.646v2.548c-.002.099.016.166.052.203.037.036.105.053.205.052h.45c.1.002.167-.016.205-.052.035-.037.053-.104.052-.203v-4.969c.001-.099-.017-.166-.052-.203-.038-.036-.105-.053-.205-.052h-.45a.307.307 0 0 0-.143.032.26.26 0 0 0-.103.096l-2.334 3.142a4.978 4.978 0 0 0-.578.956h-.032c.059-.228.102-.457.13-.687.027-.228.041-.46.041-.693v-2.59c.002-.1-.016-.167-.051-.204-.038-.036-.106-.053-.206-.052h-.449Zm8.028 3.61c.002.422.098.785.289 1.086.191.302.464.534.821.697.357.16.787.242 1.288.244.512-.002.947-.083 1.304-.244.359-.163.632-.395.821-.697.187-.301.281-.664.283-1.087v-1.73c-.002-.427-.096-.791-.283-1.096a1.814 1.814 0 0 0-.821-.697c-.357-.163-.792-.244-1.304-.246-.501.002-.931.083-1.288.246-.357.161-.63.395-.821.697-.191.305-.287.67-.289 1.096v1.73Zm3.854 0c0 .243-.059.454-.175.627a1.096 1.096 0 0 1-.5.4c-.215.092-.476.14-.781.14a1.96 1.96 0 0 1-.774-.14 1.095 1.095 0 0 1-.496-.4 1.122 1.122 0 0 1-.175-.628v-1.741c.002-.246.059-.455.175-.628.116-.175.28-.308.496-.4a1.96 1.96 0 0 1 .774-.14c.305 0 .566.048.781.14.218.092.384.225.5.4.116.173.175.382.175.628v1.741Zm6.037-3.61c-.091-.002-.155.015-.196.05-.041.038-.061.105-.061.204v1.986h-2.708v-1.986c.002-.099-.016-.166-.052-.203-.037-.036-.105-.053-.205-.052h-.45c-.1-.001-.167.016-.205.052-.036.037-.053.104-.052.203v4.969c0 .17.086.255.257.255h.45c.1.002.168-.016.205-.052.036-.037.054-.104.052-.203V27.01h2.708v2.102c0 .099.02.166.061.203.041.036.105.053.196.052h.449c.091.002.156-.016.197-.052.041-.037.06-.104.06-.203v-4.969c0-.099-.019-.166-.06-.203-.041-.036-.106-.053-.197-.052h-.449Zm2.869 0c-.1-.002-.168.015-.206.05-.035.038-.053.105-.051.204v1.657c0 .552-.027 1.013-.082 1.385-.057.372-.143.653-.261.844a1.947 1.947 0 0 1-.21.294c-.065.07-.132.13-.204.177a2.944 2.944 0 0 1-.26.145.252.252 0 0 0-.113.129.237.237 0 0 0 .017.168l.224.425a.282.282 0 0 0 .132.134c.05.021.109.02.179-.007a3.27 3.27 0 0 0 .39-.218 1.87 1.87 0 0 0 .325-.283c.103-.111.207-.25.312-.423.161-.254.28-.61.361-1.063.08-.453.121-1.002.121-1.644v-1.093h2.066v4.342c-.002.099.016.166.052.203.037.036.105.053.205.052h.439c.091.002.155-.016.196-.052.041-.037.06-.104.06-.203v-4.969c0-.099-.019-.166-.06-.203-.041-.036-.105-.053-.196-.052h-3.436Zm4.838.955c-.043.085-.054.157-.03.216.021.06.078.108.169.145l.332.149a.484.484 0 0 0 .153.037.139.139 0 0 0 .097-.04c.028-.027.062-.068.103-.125.134-.218.311-.38.532-.486.219-.108.485-.162.796-.162.312 0 .561.05.749.146a.856.856 0 0 1 .403.426c.082.19.123.42.121.692v.403a9.733 9.733 0 0 0-1.22-.074c-.573-.002-1.033.051-1.384.16-.352.107-.607.282-.768.527-.158.246-.237.571-.235.98 0 .292.043.545.127.757.085.213.21.384.376.517.166.138.403.24.712.31.309.069.685.104 1.129.104.401 0 .755-.023 1.062-.07.305-.047.565-.116.779-.206.1-.04.177-.085.234-.131a.382.382 0 0 0 .118-.18 1.02 1.02 0 0 0 .034-.294v-2.771c.001-.444-.07-.827-.216-1.147a1.559 1.559 0 0 0-.707-.738c-.326-.171-.756-.258-1.293-.26-.53 0-.976.092-1.34.278a1.9 1.9 0 0 0-.833.837Zm3.425 3.525a.247.247 0 0 1-.039.145.27.27 0 0 1-.121.088c-.246.085-.643.128-1.189.128-.33 0-.588-.032-.777-.098-.19-.063-.325-.162-.404-.293a.965.965 0 0 1-.114-.501.93.93 0 0 1 .123-.51c.084-.13.222-.228.414-.29.195-.062.454-.092.78-.092.155 0 .344.007.567.023.223.014.477.036.76.062v1.338Zm6.241-6.36c.016-.053.016-.099-.002-.136a.225.225 0 0 0-.116-.097l-.375-.138c-.107-.032-.182 0-.224.095-.139.467-.45.7-.932.7-.24 0-.437-.058-.588-.174-.152-.117-.263-.292-.332-.526a.153.153 0 0 0-.096-.09.315.315 0 0 0-.161.005l-.332.128c-.059.016-.096.044-.116.085a.22.22 0 0 0-.002.148c.124.377.32.659.589.846.27.186.616.28 1.038.28.429 0 .78-.094 1.053-.28.275-.188.473-.469.596-.846Zm-3.779 1.88c-.1-.002-.168.015-.205.05-.035.038-.053.105-.052.204v4.969c0 .17.086.255.257.255h.45a.307.307 0 0 0 .257-.128l2.301-3.11c.123-.176.236-.344.336-.505.101-.16.189-.318.264-.472h.032c-.059.276-.102.53-.13.766-.027.234-.041.45-.041.646v2.548c-.002.099.015.166.051.203.038.036.106.053.205.052h.45c.1.002.168-.016.205-.052.036-.037.054-.104.052-.203v-4.969c.002-.099-.016-.166-.052-.203-.037-.036-.105-.053-.205-.052h-.45a.306.306 0 0 0-.142.032.263.263 0 0 0-.104.096l-2.333 3.142a4.928 4.928 0 0 0-.578.956h-.033a5.473 5.473 0 0 0 .172-1.38v-2.59c.002-.1-.016-.167-.052-.204-.037-.036-.105-.053-.205-.052h-.45Zm9.688 0c-.091-.002-.155.015-.197.05-.041.038-.06.105-.06.204v1.986h-2.708v-1.986c.001-.099-.017-.166-.052-.203-.038-.036-.105-.053-.205-.052h-.45c-.1-.001-.168.016-.205.052-.036.037-.054.104-.052.203v4.969c0 .17.086.255.257.255h.45c.1.002.167-.016.205-.052.035-.037.053-.104.052-.203V27.01h2.708v2.102c0 .099.019.166.06.203.042.036.106.053.197.052h.449c.091.002.155-.016.197-.052.041-.037.06-.104.06-.203v-4.969c0-.099-.019-.166-.06-.203-.042-.036-.106-.053-.197-.052h-.449Z"/><path fill="#115B82" fill-rule="evenodd" d="M10.743 2.187C10.138.882 9.29.229 8.203.16H3.701C2.71 1.325 1.476 2.863 0 4.774c1.97-.015 4.105-.148 6.287.088 1.75.189 3.196.781 4.238 1.94.145-1.842.17-3.357.218-4.615Z" clip-rule="evenodd"/><path fill="#115B82" fill-rule="evenodd" d="M10.743 2.187C10.138.882 9.29.229 8.203.16H3.701C2.71 1.325 1.476 2.863 0 4.774c1.97-.015 4.105-.148 6.287.088 1.75.189 3.196.781 4.238 1.94.145-1.842.17-3.357.218-4.615Z" clip-rule="evenodd"/><path fill="#115B82" fill-rule="evenodd" d="M4.493 5.665V20.27h6.013V8.156c-1.577-1.88-3.63-2.392-6.013-2.49Z" clip-rule="evenodd"/><path fill="#115B82" fill-rule="evenodd" d="M4.493 5.665V20.27h6.013V8.156c-1.577-1.88-3.63-2.392-6.013-2.49ZM24.657 20.071c-2.708.226-5.755.554-8.284-.674-1.428-.694-2.563-1.675-3.39-2.944-1.745-2.674-2.037-8.767-.199-12.084.479-.864 1.156-1.524 1.953-2.1C16.723.833 19.394.077 22.75 0c-3.564 2.804-5.079 4.872-5.343 8.01-.146 1.735-.262 5.036 1.213 6.217a4.43 4.43 0 0 0 1.31.732c2.482.866 6.466.4 8.76.167-1.492 2.473-3.031 4.17-4.034 4.945Z" clip-rule="evenodd"/><path fill="#115B82" fill-rule="evenodd" d="M24.657 20.071c-2.708.226-5.755.554-8.284-.674-1.428-.694-2.563-1.675-3.39-2.944-1.745-2.674-2.037-8.767-.199-12.084.479-.864 1.156-1.524 1.953-2.1C16.723.833 19.394.077 22.75 0c-3.564 2.804-5.079 4.872-5.343 8.01-.146 1.735-.262 5.036 1.213 6.217a4.43 4.43 0 0 0 1.31.732c2.482.866 6.466.4 8.76.167-1.492 2.473-3.031 4.17-4.034 4.945ZM43.59.324C46.298.1 49.344-.23 51.873 1c1.429.694 2.563 1.675 3.39 2.944 1.745 2.674 2.038 8.767.2 12.083-.48.865-1.156 1.525-1.953 2.101-1.986 1.436-4.657 2.192-8.014 2.269 3.564-2.805 5.08-4.872 5.344-8.01.146-1.735.262-5.036-1.214-6.218a4.428 4.428 0 0 0-1.309-.731c-2.483-.866-6.467-.4-8.76-.168C41.048 2.797 42.588 1.1 43.59.324Z" clip-rule="evenodd"/><path fill="#115B82" fill-rule="evenodd" d="M43.59.324C46.298.1 49.344-.23 51.873 1c1.429.694 2.563 1.675 3.39 2.944 1.745 2.674 2.038 8.767.2 12.083-.48.865-1.156 1.525-1.953 2.101-1.986 1.436-4.657 2.192-8.014 2.269 3.564-2.805 5.08-4.872 5.344-8.01.146-1.735.262-5.036-1.214-6.218a4.428 4.428 0 0 0-1.309-.731c-2.483-.866-6.467-.4-8.76-.168C41.048 2.797 42.588 1.1 43.59.324Z" clip-rule="evenodd"/><path fill="#115B82" fill-rule="evenodd" d="M25.903 20.217c2.847-2.358 4.632-4.968 5.054-8.43.125-1.021.108-2.055.207-3.08.194-2.001.689-4.018 2.21-5.543C35.224 1.307 37.99.373 42.106.073c-3.396 3.02-4.64 5.485-5.136 9.315-.12.93-.142 1.874-.296 2.8-.866 5.204-5.177 8.255-10.772 8.029Z" clip-rule="evenodd"/><path fill="#115B82" fill-rule="evenodd" d="M25.903 20.217c2.847-2.358 4.632-4.968 5.054-8.43.125-1.021.108-2.055.207-3.08.194-2.001.689-4.018 2.21-5.543C35.224 1.307 37.99.373 42.106.073c-3.396 3.02-4.64 5.485-5.136 9.315-.12.93-.142 1.874-.296 2.8-.866 5.204-5.177 8.255-10.772 8.029ZM30.101 6.64c-.9-.72-1.691-1.071-2.55-1.286-2.451-.613-5.331-.256-7.974-.175C21.049 2.6 22.576.978 24.103.149a40.692 40.692 0 0 1 3.61.02c1.32.073 2.39.221 3.614.722.798.327 1.298.639 1.501.934-1.509 1.425-2.418 3.047-2.727 4.814Z" clip-rule="evenodd"/><path fill="#115B82" fill-rule="evenodd" d="M30.101 6.64c-.9-.72-1.691-1.071-2.55-1.286-2.451-.613-5.331-.256-7.974-.175C21.049 2.6 22.576.978 24.103.149a40.692 40.692 0 0 1 3.61.02c1.32.073 2.39.221 3.614.722.798.327 1.298.639 1.501.934-1.509 1.425-2.418 3.047-2.727 4.814ZM37.471 13.757c.925.72 1.737 1.07 2.619 1.284 2.517.614 5.474.257 8.188.176-1.512 2.578-3.08 4.2-4.647 5.03a42.9 42.9 0 0 1-3.708-.021c-1.355-.072-2.454-.22-3.71-.722-.82-.327-1.333-.638-1.541-.934 1.549-1.424 2.482-3.047 2.8-4.813Z" clip-rule="evenodd"/><path fill="#115B82" fill-rule="evenodd" d="M37.471 13.757c.925.72 1.737 1.07 2.619 1.284 2.517.614 5.474.257 8.188.176-1.512 2.578-3.08 4.2-4.647 5.03a42.9 42.9 0 0 1-3.708-.021c-1.355-.072-2.454-.22-3.71-.722-.82-.327-1.333-.638-1.541-.934 1.549-1.424 2.482-3.047 2.8-4.813Z" clip-rule="evenodd"/></g><defs><clipPath id="a"><path fill="#fff" d="M0 0h179v32H0z"/></clipPath></defs></svg>