<svg xmlns="http://www.w3.org/2000/svg" width="24" height="24" fill="none"><g fill="#33836E" fill-rule="evenodd" clip-rule="evenodd"><path d="M3.75 3.75v16.5h16.5V3.75H3.75Zm-1.5-.15c0-.746.604-1.35 1.35-1.35h16.8c.746 0 1.35.604 1.35 1.35v16.8a1.35 1.35 0 0 1-1.35 1.35H3.6a1.35 1.35 0 0 1-1.35-1.35V3.6Z"/><path d="M12 4.75a.75.75 0 0 1 .75.75v1.13c1.049.177 2.098.657 2.78 1.34a.75.75 0 1 1-1.06 1.06c-.529-.528-1.541-.946-2.49-.972-.556-.015-.993.108-1.272.32-.248.187-.458.508-.458 1.122 0 .255.057.424.13.547.077.128.197.25.382.367.4.255.966.416 1.685.612l.057.016c.646.176 1.427.389 2.04.778.33.21.64.488.864.864.227.38.342.82.342 1.316 0 1.102-.487 1.942-1.244 2.472-.514.36-1.128.562-1.756.637V18.5a.75.75 0 1 1-1.5 0v-1.435c-1.093-.19-2.18-.722-2.85-1.615a.75.75 0 0 1 1.2-.9c.471.628 1.425 1.055 2.427 1.091.654.024 1.23-.125 1.619-.398.359-.25.604-.634.604-1.243a1.03 1.03 0 0 0-.13-.547 1.133 1.133 0 0 0-.382-.367c-.4-.255-.966-.416-1.685-.612l-.057-.016c-.645-.176-1.427-.389-2.04-.778-.33-.21-.64-.488-.864-.864A2.523 2.523 0 0 1 8.75 9.5c0-1.017.38-1.809 1.053-2.318.427-.324.932-.502 1.447-.579V5.5a.75.75 0 0 1 .75-.75Z"/></g></svg>