<svg xmlns="http://www.w3.org/2000/svg" width="54" height="54" fill="none"><rect width="54" height="54" fill="#EBF2F0" rx="27"/><g fill="#33836E" clip-path="url(#a)"><path d="M31.872 39c-8.34-.097-18.786-10.81-16.542-19.244.454-2.473 4.838-6.739 7.689-3.71 1.133 1.2 2.593 2.136 2.555 3.992.008 1.172-.551 2.077-1.398 2.836a2.674 2.674 0 0 0-.207 3.549 22.124 22.124 0 0 0 3.587 3.587 2.674 2.674 0 0 0 3.55-.206l.388-.388a3.437 3.437 0 0 1 2.447-1.01c1.854-.04 2.795 1.424 3.992 2.555 3.024 2.876-1.226 7.217-3.71 7.689a7.63 7.63 0 0 1-2.351.35ZM20.655 16.03c-1.729-.067-4.034 2.442-4.313 3.926-1.817 6.914 5.415 14.87 11.636 17.224 3.028 1.083 5.806 1.237 8.093-.687 1.524-1.305 2.7-3.24 1.133-4.803l-1.545-1.545c-.899-.939-2.537-.938-3.436 0l-.389.388a3.705 3.705 0 0 1-4.917.286 22.978 22.978 0 0 1-3.757-3.756 3.705 3.705 0 0 1 .287-4.918l.388-.389c.938-.898.938-2.537 0-3.436l-1.546-1.545c-.497-.497-1.037-.744-1.634-.744ZM34.315 24.552a.516.516 0 0 1-.503-.408 5.167 5.167 0 0 0-1.401-2.575 5.164 5.164 0 0 0-2.617-1.41.516.516 0 0 1 .208-1.01 6.191 6.191 0 0 1 3.137 1.69 6.196 6.196 0 0 1 1.681 3.089.516.516 0 0 1-.505.624Z"/><path d="M37.228 27.448a.517.517 0 0 1-.506-.617 8.115 8.115 0 0 0-2.223-7.35 8.113 8.113 0 0 0-7.363-2.221.515.515 0 1 1-.204-1.01 9.142 9.142 0 0 1 8.296 2.501 9.144 9.144 0 0 1 2.505 8.283.516.516 0 0 1-.505.414Z"/></g><defs><clipPath id="a"><path fill="#fff" d="M15 15h24v24H15z"/></clipPath></defs></svg>