<svg xmlns="http://www.w3.org/2000/svg" width="54" height="54" fill="none"><rect width="54" height="54" fill="#EBF2F0" rx="27"/><path stroke="#33836E" stroke-linecap="round" stroke-linejoin="round" stroke-miterlimit="10" stroke-width="1.031" d="M16.993 37.055v-20.11c0-.79.64-1.43 1.43-1.43h18.584v20.11H18.422c-.79 0-1.43.64-1.43 1.43Zm0 0c0 .79.64 1.43 1.43 1.43h18.584m-1.43-2.86v2.86m-15.725-22.97v20.11"/><path stroke="#33836E" stroke-linecap="round" stroke-linejoin="round" stroke-miterlimit="10" stroke-width="1.031" d="M28.43 21.282v10.007M22.71 22.71h11.437M25.57 31.29h5.719M24.14 22.71l-1.43 2.86a1.43 1.43 0 1 0 2.86 0l-1.43-2.86Zm8.577 0 1.43 2.86a1.43 1.43 0 1 1-2.86 0l1.43-2.86Z"/></svg>