<svg xmlns="http://www.w3.org/2000/svg" width="54" height="54" fill="none"><rect width="54" height="54" fill="#EBF2F0" rx="27"/><g stroke="#33836E" stroke-linejoin="round" stroke-miterlimit="10" stroke-width="1.031" clip-path="url(#a)"><path d="M28.747 34.313v3.463a.708.708 0 0 1-.708.708h-2.078a.708.708 0 0 1-.708-.708v-3.382"/><path stroke-linecap="round" d="M28.747 30.923h-3.494M33.654 31.58a9.41 9.41 0 1 0-13.309-13.308 9.41 9.41 0 0 0 13.31 13.308Z"/><path stroke-linecap="round" d="M27 18.854v12.07m0-12.07 2.077 2.341M27 18.855l-2.077 2.34M31.2 27.38l2.341-2.077-2.341-2.077"/><path stroke-linecap="round" d="M33.541 25.303h-4.773c-.977 0-1.768.791-1.768 1.768"/></g><defs><clipPath id="a"><path fill="#fff" d="M15 15h24v24H15z"/></clipPath></defs></svg>