<svg xmlns="http://www.w3.org/2000/svg" width="24" height="24" fill="none"><path fill="#33836E" fill-rule="evenodd" d="M4.064 1.25h3.75a.75.75 0 0 1 .702.486l1.456 3.87a.75.75 0 0 1 .035.401l-.73 3.912c.897 2.108 2.378 3.525 4.834 4.796l3.864-.75a.75.75 0 0 1 .41.036l3.882 1.48c.29.11.483.389.483.7v3.584c0 1.626-1.432 2.945-3.108 2.58-3.053-.664-8.71-2.353-12.672-6.315C3.174 12.235 1.903 6.993 1.475 4.16 1.23 2.542 2.527 1.25 4.064 1.25Zm3.231 1.5H4.064c-.72 0-1.198.572-1.106 1.185.413 2.732 1.62 7.583 5.072 11.035 3.649 3.648 8.953 5.262 11.931 5.91.655.142 1.289-.356 1.289-1.114v-3.068l-3.2-1.219-3.907.757a.75.75 0 0 1-.48-.066c-2.894-1.452-4.773-3.175-5.86-5.892a.75.75 0 0 1-.04-.415l.731-3.925L7.295 2.75Z" clip-rule="evenodd"/></svg>