<svg xmlns="http://www.w3.org/2000/svg" width="24" height="24" fill="none"><g fill="#fff" fill-rule="evenodd" clip-rule="evenodd"><path d="M10.345 7.603C10 7.895 9.75 8.341 9.75 9a.75.75 0 0 1-1.5 0c0-1.091.437-1.958 1.124-2.54.67-.57 1.538-.835 2.376-.835.838 0 1.705.265 2.376.834.687.583 1.124 1.45 1.124 2.541 0 .766-.196 1.35-.517 1.83-.269.404-.619.716-.894.962l-.087.078c-.308.276-.539.504-.709.804-.162.287-.293.688-.293 1.326a.75.75 0 0 1-1.5 0c0-.862.181-1.524.488-2.065.299-.528.693-.894 1.01-1.18l.072-.065c.3-.27.508-.455.665-.692.149-.222.265-.514.265-.998 0-.659-.25-1.105-.595-1.397-.36-.306-.868-.478-1.405-.478s-1.045.172-1.405.478ZM12.512 17.441a.75.75 0 0 1 .056 1.06l-.01.01a.75.75 0 1 1-1.115-1.003l.01-.01a.75.75 0 0 1 1.059-.057Z"/><path d="M12 2.75A9.25 9.25 0 0 0 2.75 12c0 1.686.45 3.265 1.237 4.625a.75.75 0 0 1 .088.512l-.638 3.426 3.426-.638a.75.75 0 0 1 .513.088A9.204 9.204 0 0 0 12 21.25a9.25 9.25 0 0 0 0-18.5ZM1.25 12C1.25 6.063 6.063 1.25 12 1.25S22.75 6.063 22.75 12 17.937 22.75 12 22.75c-1.856 0-3.605-.471-5.13-1.3l-4.233.787a.75.75 0 0 1-.874-.874l.788-4.233A10.705 10.705 0 0 1 1.25 12Z"/></g></svg>