<svg xmlns="http://www.w3.org/2000/svg" width="24" height="24" fill="none"><path fill="#33836E" fill-rule="evenodd" d="M9.53 2.47a.75.75 0 0 1 0 1.06L3.81 9.25H16c2.182 0 3.883.755 5.038 1.947 1.147 1.182 1.712 2.75 1.712 4.303s-.565 3.12-1.712 4.303C19.883 20.995 18.182 21.75 16 21.75a.75.75 0 0 1 0-1.5c1.818 0 3.117-.62 3.962-1.49.853-.88 1.288-2.063 1.288-3.26 0-1.197-.435-2.38-1.288-3.26-.845-.87-2.144-1.49-3.962-1.49H3.81l5.72 5.72a.75.75 0 1 1-1.06 1.06l-7-7a.75.75 0 0 1 0-1.06l7-7a.75.75 0 0 1 1.06 0Z" clip-rule="evenodd"/></svg>